<?xml version="1.0" encoding="UTF-8" standalone="no"?>
<!DOCTYPE svg PUBLIC "-//W3C//DTD SVG 1.1//EN" "http://www.w3.org/Graphics/SVG/1.1/DTD/svg11.dtd">
<svg width="100%" height="100%" viewBox="0 0 2481 3508" version="1.1" xmlns="http://www.w3.org/2000/svg" xmlns:xlink="http://www.w3.org/1999/xlink" xml:space="preserve" xmlns:serif="http://www.serif.com/" style="fill-rule:evenodd;clip-rule:evenodd;stroke-linecap:round;stroke-linejoin:round;stroke-miterlimit:1.5;">
    <g id="カット1">
        <g transform="matrix(1,0,0,1,-133.866,2.88692)">
            <path d="M549.309,1649.97L549.309,1636.98L539.599,1626.35L477.523,1626.35L467.813,1636.98L467.813,1649.97L549.309,1649.97ZM1002.6,1649.97L1002.6,1636.98L992.894,1626.35L930.818,1626.35L921.108,1636.98L921.108,1649.97L1002.6,1649.97Z" style="fill:none;stroke:rgb(255,0,0);stroke-width:0.42px;"/>
        </g>
        <g transform="matrix(6.12323e-17,-1,1,6.12323e-17,323.172,3554.5)">
            <path d="M549.309,1649.97L549.309,1636.98L539.599,1626.35L477.523,1626.35L467.813,1636.98L467.813,1649.97L549.309,1649.97ZM1002.6,1649.97L1002.6,1636.98L992.894,1626.35L930.818,1626.35L921.108,1636.98L921.108,1649.97L1002.6,1649.97Z" style="fill:none;stroke:rgb(255,0,0);stroke-width:0.42px;"/>
        </g>
        <g transform="matrix(1,0,0,1,-83.0104,-65.5195)">
            <path d="M462.507,1173.01C462.507,1179.53 457.215,1184.82 450.696,1184.82C444.178,1184.82 438.885,1179.53 438.885,1173.01C438.885,1166.49 444.178,1161.2 450.696,1161.2C457.215,1161.2 462.507,1166.49 462.507,1173.01ZM914.455,1173.01C914.455,1179.53 909.162,1184.82 902.644,1184.82C896.125,1184.82 890.833,1179.53 890.833,1173.01C890.833,1166.49 896.125,1161.2 902.644,1161.2C909.162,1161.2 914.455,1166.49 914.455,1173.01ZM691.02,497.293C691.02,503.811 685.728,509.104 679.209,509.104C672.691,509.104 667.398,503.811 667.398,497.293C667.398,490.774 672.691,485.482 679.209,485.482C685.728,485.482 691.02,490.774 691.02,497.293ZM914.455,497.293C914.455,503.811 909.162,509.104 902.644,509.104C896.125,509.104 890.833,503.811 890.833,497.293C890.833,490.774 896.125,485.482 902.644,485.482C909.162,485.482 914.455,490.774 914.455,497.293Z" style="fill:none;stroke:rgb(255,0,0);stroke-width:0.42px;"/>
        </g>
        <g transform="matrix(1.16973e-17,0.191032,-0.168067,1.02911e-17,1337.94,35.2662)">
            <ellipse cx="391.223" cy="1605.37" rx="61.828" ry="70.276" style="fill:none;stroke:rgb(255,0,0);stroke-width:2.32px;"/>
        </g>
        <g transform="matrix(1.16973e-17,0.191032,-0.168067,1.02911e-17,1337.94,1313.95)">
            <ellipse cx="391.223" cy="1605.37" rx="61.828" ry="70.276" style="fill:none;stroke:rgb(255,0,0);stroke-width:2.32px;"/>
        </g>
        <g transform="matrix(1.16973e-17,0.191032,-0.168067,1.02911e-17,382.575,1313.95)">
            <ellipse cx="391.223" cy="1605.37" rx="61.828" ry="70.276" style="fill:none;stroke:rgb(255,0,0);stroke-width:2.32px;"/>
        </g>
        <g transform="matrix(1.16973e-17,0.191032,-0.168067,1.02911e-17,382.575,35.2662)">
            <ellipse cx="391.223" cy="1605.37" rx="61.828" ry="70.276" style="fill:none;stroke:rgb(255,0,0);stroke-width:2.32px;"/>
        </g>
        <g transform="matrix(1,0,0,1,1223.64,-65.5195)">
            <path d="M462.507,1173.01C462.507,1179.53 457.215,1184.82 450.696,1184.82C444.178,1184.82 438.885,1179.53 438.885,1173.01C438.885,1166.49 444.178,1161.2 450.696,1161.2C457.215,1161.2 462.507,1166.49 462.507,1173.01ZM914.455,1173.01C914.455,1179.53 909.162,1184.82 902.644,1184.82C896.125,1184.82 890.833,1179.53 890.833,1173.01C890.833,1166.49 896.125,1161.2 902.644,1161.2C909.162,1161.2 914.455,1166.49 914.455,1173.01ZM691.02,497.293C691.02,503.811 685.728,509.104 679.209,509.104C672.691,509.104 667.398,503.811 667.398,497.293C667.398,490.774 672.691,485.482 679.209,485.482C685.728,485.482 691.02,490.774 691.02,497.293ZM914.455,497.293C914.455,503.811 909.162,509.104 902.644,509.104C896.125,509.104 890.833,503.811 890.833,497.293C890.833,490.774 896.125,485.482 902.644,485.482C909.162,485.482 914.455,490.774 914.455,497.293Z" style="fill:none;stroke:rgb(255,0,0);stroke-width:0.42px;"/>
        </g>
        <g transform="matrix(1.16973e-17,0.191032,-0.168067,1.02911e-17,2644.59,35.2662)">
            <ellipse cx="391.223" cy="1605.37" rx="61.828" ry="70.276" style="fill:none;stroke:rgb(255,0,0);stroke-width:2.32px;"/>
        </g>
        <g transform="matrix(1.16973e-17,0.191032,-0.168067,1.02911e-17,2644.59,1313.95)">
            <ellipse cx="391.223" cy="1605.37" rx="61.828" ry="70.276" style="fill:none;stroke:rgb(255,0,0);stroke-width:2.32px;"/>
        </g>
        <g transform="matrix(1.16973e-17,0.191032,-0.168067,1.02911e-17,1689.22,1313.95)">
            <ellipse cx="391.223" cy="1605.37" rx="61.828" ry="70.276" style="fill:none;stroke:rgb(255,0,0);stroke-width:2.32px;"/>
        </g>
        <g transform="matrix(1.16973e-17,0.191032,-0.168067,1.02911e-17,1689.22,35.2662)">
            <ellipse cx="391.223" cy="1605.37" rx="61.828" ry="70.276" style="fill:none;stroke:rgb(255,0,0);stroke-width:2.32px;"/>
        </g>
        <g transform="matrix(1.16973e-17,0.191032,-0.168067,1.02911e-17,1337.94,3326.84)">
            <ellipse cx="391.223" cy="1605.37" rx="61.828" ry="70.276" style="fill:none;stroke:rgb(255,0,0);stroke-width:2.32px;"/>
        </g>
        <g transform="matrix(1.16973e-17,0.191032,-0.168067,1.02911e-17,1337.94,2048.16)">
            <ellipse cx="391.223" cy="1605.37" rx="61.828" ry="70.276" style="fill:none;stroke:rgb(255,0,0);stroke-width:2.32px;"/>
        </g>
        <g transform="matrix(1.16973e-17,0.191032,-0.168067,1.02911e-17,382.575,3326.84)">
            <ellipse cx="391.223" cy="1605.37" rx="61.828" ry="70.276" style="fill:none;stroke:rgb(255,0,0);stroke-width:2.32px;"/>
        </g>
        <g transform="matrix(1.16973e-17,0.191032,-0.168067,1.02911e-17,382.575,2048.16)">
            <ellipse cx="391.223" cy="1605.37" rx="61.828" ry="70.276" style="fill:none;stroke:rgb(255,0,0);stroke-width:2.32px;"/>
        </g>
        <g transform="matrix(1.16973e-17,0.191032,-0.168067,1.02911e-17,2644.59,2048.16)">
            <ellipse cx="391.223" cy="1605.37" rx="61.828" ry="70.276" style="fill:none;stroke:rgb(255,0,0);stroke-width:2.32px;"/>
        </g>
        <g transform="matrix(1.16973e-17,0.191032,-0.168067,1.02911e-17,2644.59,3326.84)">
            <ellipse cx="391.223" cy="1605.37" rx="61.828" ry="70.276" style="fill:none;stroke:rgb(255,0,0);stroke-width:2.32px;"/>
        </g>
        <g transform="matrix(1.16973e-17,0.191032,-0.168067,1.02911e-17,1689.22,3326.84)">
            <ellipse cx="391.223" cy="1605.37" rx="61.828" ry="70.276" style="fill:none;stroke:rgb(255,0,0);stroke-width:2.32px;"/>
        </g>
        <g transform="matrix(1.16973e-17,0.191032,-0.168067,1.02911e-17,1689.22,2048.16)">
            <ellipse cx="391.223" cy="1605.37" rx="61.828" ry="70.276" style="fill:none;stroke:rgb(255,0,0);stroke-width:2.32px;"/>
        </g>
        <g transform="matrix(1,0,0,1,1158,292.064)">
            <path d="M549.309,1649.97L549.309,1636.98L539.599,1626.35L477.523,1626.35L467.813,1636.98L467.813,1649.97L549.309,1649.97ZM1002.6,1649.97L1002.6,1636.98L992.894,1626.35L930.818,1626.35L921.108,1636.98L921.108,1649.97L1002.6,1649.97Z" style="fill:none;stroke:rgb(255,0,0);stroke-width:0.42px;"/>
        </g>
        <g transform="matrix(1,0,0,1,1158.18,4.32464)">
            <path d="M549.309,1649.97L549.309,1636.98L539.599,1626.35L477.523,1626.35L467.813,1636.98L467.813,1649.97L549.309,1649.97ZM1002.6,1649.97L1002.6,1636.98L992.894,1626.35L930.818,1626.35L921.108,1636.98L921.108,1649.97L1002.6,1649.97Z" style="fill:none;stroke:rgb(255,0,0);stroke-width:0.42px;"/>
        </g>
        <g transform="matrix(1,0,0,1,-134.046,290.626)">
            <path d="M549.309,1649.97L549.309,1636.98L539.599,1626.35L477.523,1626.35L467.813,1636.98L467.813,1649.97L549.309,1649.97ZM1002.6,1649.97L1002.6,1636.98L992.894,1626.35L930.818,1626.35L921.108,1636.98L921.108,1649.97L1002.6,1649.97Z" style="fill:none;stroke:rgb(255,0,0);stroke-width:0.42px;"/>
        </g>
        <g transform="matrix(6.12323e-17,-1,1,6.12323e-17,-993.994,3532.55)">
            <path d="M549.309,1649.97L549.309,1636.98L539.599,1626.35L477.523,1626.35L467.813,1636.98L467.813,1649.97L549.309,1649.97ZM1002.6,1649.97L1002.6,1636.98L992.894,1626.35L930.818,1626.35L921.108,1636.98L921.108,1649.97L1002.6,1649.97Z" style="fill:none;stroke:rgb(255,0,0);stroke-width:0.42px;"/>
        </g>
    </g>
    <g id="カット2">
        <g transform="matrix(1,0,0,1,-80.5511,237.619)">
            <path d="M1137.74,3211.2C1153.4,3211.2 1168.42,3204.98 1179.5,3193.9C1190.57,3182.83 1196.79,3167.81 1196.79,3152.14L1196.79,1893.38C1196.79,1877.72 1190.57,1862.7 1179.5,1851.62C1168.42,1840.55 1153.4,1834.33 1137.74,1834.33L200.293,1834.33C184.63,1834.33 169.609,1840.55 158.534,1851.62C147.459,1862.7 141.238,1877.72 141.238,1893.38L141.238,3152.14C141.238,3167.81 147.459,3182.83 158.534,3193.9C169.609,3204.98 184.63,3211.2 200.293,3211.2L1137.74,3211.2ZM445.189,2418.9C445.189,2421.88 442.771,2424.3 439.787,2424.3C405.407,2424.31 218.57,2424.37 218.57,2424.37L218.57,3117.32L1126.69,3117.32L1126.69,1973.27L445.11,1973.27L445.11,1973.5L445.189,1973.5L445.189,2418.9Z" style="fill:none;fill-rule:nonzero;stroke:rgb(0,0,255);stroke-width:1px;stroke-miterlimit:10;"/>
        </g>
        <g transform="matrix(6.16422e-17,-1.00669,1,6.12323e-17,-154.521,4511.78)">
            <rect x="1240.27" y="2048" width="882.283" height="106.299" style="fill:none;stroke:rgb(0,0,255);stroke-width:0.42px;"/>
        </g>
        <g transform="matrix(6.16422e-17,-1.00669,1,6.12323e-17,-1471.69,4489.82)">
            <rect x="1240.27" y="2048" width="882.283" height="106.299" style="fill:none;stroke:rgb(0,0,255);stroke-width:0.42px;"/>
        </g>
        <g transform="matrix(1.00669,0,0,1.33333,-1091.14,-1192.91)">
            <rect x="1240.27" y="2048" width="882.283" height="106.299" style="fill:none;stroke:rgb(0,0,255);stroke-width:0.35px;"/>
        </g>
        <g transform="matrix(1.00669,0,0,1.66667,-1091.32,-1623.27)">
            <rect x="1240.27" y="2048" width="882.283" height="106.299" style="fill:none;stroke:rgb(0,0,255);stroke-width:0.3px;"/>
        </g>
        <g transform="matrix(1.00669,0,0,1.33333,200.91,-1191.47)">
            <rect x="1240.27" y="2048" width="882.283" height="106.299" style="fill:none;stroke:rgb(0,0,255);stroke-width:0.35px;"/>
        </g>
        <g transform="matrix(1.00669,0,0,1.66667,200.73,-1621.83)">
            <rect x="1240.27" y="2048" width="882.283" height="106.299" style="fill:none;stroke:rgb(0,0,255);stroke-width:0.3px;"/>
        </g>
        <g transform="matrix(1,0,0,1,-83.0104,-65.5195)">
            <path d="M1138.57,1501.45C1154.23,1501.45 1169.25,1495.22 1180.33,1484.15C1191.4,1473.07 1197.62,1458.05 1197.62,1442.39L1197.62,183.63C1197.62,167.967 1191.4,152.946 1180.33,141.871C1169.25,130.796 1154.23,124.575 1138.57,124.575L201.121,124.575C185.458,124.575 170.437,130.796 159.362,141.871C148.287,152.946 142.066,167.967 142.066,183.63L142.066,1442.39C142.066,1458.05 148.287,1473.07 159.362,1484.15C170.437,1495.22 185.458,1501.45 201.121,1501.45L1138.57,1501.45Z" style="fill:none;stroke:rgb(0,0,255);stroke-width:0.42px;"/>
        </g>
        <g transform="matrix(1,0,0,1,1223.64,-65.5195)">
            <path d="M1138.57,1501.45C1154.23,1501.45 1169.25,1495.22 1180.33,1484.15C1191.4,1473.07 1197.62,1458.05 1197.62,1442.39L1197.62,183.63C1197.62,167.967 1191.4,152.946 1180.33,141.871C1169.25,130.796 1154.23,124.575 1138.57,124.575L201.121,124.575C185.458,124.575 170.437,130.796 159.362,141.871C148.287,152.946 142.066,167.967 142.066,183.63L142.066,1442.39C142.066,1458.05 148.287,1473.07 159.362,1484.15C170.437,1495.22 185.458,1501.45 201.121,1501.45L1138.57,1501.45Z" style="fill:none;stroke:rgb(0,0,255);stroke-width:0.42px;"/>
        </g>
        <g transform="matrix(1,0,0,1,1224.38,237.619)">
            <path d="M1137.74,3211.2C1153.4,3211.2 1168.42,3204.98 1179.5,3193.9C1190.57,3182.83 1196.79,3167.81 1196.79,3152.14L1196.79,1893.38C1196.79,1877.72 1190.57,1862.7 1179.5,1851.62C1168.42,1840.55 1153.4,1834.33 1137.74,1834.33L200.293,1834.33C184.63,1834.33 169.609,1840.55 158.534,1851.62C147.459,1862.7 141.238,1877.72 141.238,1893.38L141.238,3152.14C141.238,3167.81 147.459,3182.83 158.534,3193.9C169.609,3204.98 184.63,3211.2 200.293,3211.2L1137.74,3211.2ZM445.189,2418.9C445.189,2421.88 442.771,2424.3 439.787,2424.3C405.407,2424.31 218.57,2424.37 218.57,2424.37L218.57,3117.32L1126.69,3117.32L1126.69,1973.27L445.11,1973.27L445.11,1973.5L445.189,1973.5L445.189,2418.9Z" style="fill:none;fill-rule:nonzero;stroke:rgb(0,0,255);stroke-width:1px;stroke-miterlimit:10;"/>
        </g>
    </g>
</svg>
