<?xml version="1.0" encoding="UTF-8" standalone="no"?>
<!DOCTYPE svg PUBLIC "-//W3C//DTD SVG 1.1//EN" "http://www.w3.org/Graphics/SVG/1.1/DTD/svg11.dtd">
<svg width="100%" height="100%" viewBox="0 0 5315 3544" version="1.1" xmlns="http://www.w3.org/2000/svg" xmlns:xlink="http://www.w3.org/1999/xlink" xml:space="preserve" xmlns:serif="http://www.serif.com/" style="fill-rule:evenodd;clip-rule:evenodd;stroke-linecap:round;stroke-linejoin:round;stroke-miterlimit:1.5;">
    <g id="カット1">
        <g transform="matrix(1,1.22465e-16,-1.22465e-16,1,2476.16,35.4331)">
            <g transform="matrix(2.33946e-17,0.382063,-0.336134,2.05823e-17,1621.56,1955.47)">
                <ellipse cx="391.223" cy="1605.37" rx="61.828" ry="70.276" style="fill:none;stroke:rgb(255,0,0);stroke-width:2.78px;"/>
            </g>
            <g transform="matrix(2.33946e-17,0.382063,-0.336134,2.05823e-17,1621.56,3234.15)">
                <ellipse cx="391.223" cy="1605.37" rx="61.828" ry="70.276" style="fill:none;stroke:rgb(255,0,0);stroke-width:2.78px;"/>
            </g>
            <g transform="matrix(2.33946e-17,0.382063,-0.336134,2.05823e-17,666.193,3234.15)">
                <ellipse cx="391.223" cy="1605.37" rx="61.828" ry="70.276" style="fill:none;stroke:rgb(255,0,0);stroke-width:2.78px;"/>
            </g>
            <g transform="matrix(2.33946e-17,0.382063,-0.336134,2.05823e-17,666.193,1955.47)">
                <ellipse cx="391.223" cy="1605.37" rx="61.828" ry="70.276" style="fill:none;stroke:rgb(255,0,0);stroke-width:2.78px;"/>
            </g>
        </g>
        <g transform="matrix(1,1.22465e-16,-1.22465e-16,1,2834.65,35.4331)">
            <g transform="matrix(-2.33946e-17,0.382063,0.336134,2.05823e-17,858.757,1955.47)">
                <ellipse cx="391.223" cy="1605.37" rx="61.828" ry="70.276" style="fill:none;stroke:rgb(255,0,0);stroke-width:2.78px;"/>
            </g>
            <g transform="matrix(-2.33946e-17,0.382063,0.336134,2.05823e-17,858.757,3234.15)">
                <ellipse cx="391.223" cy="1605.37" rx="61.828" ry="70.276" style="fill:none;stroke:rgb(255,0,0);stroke-width:2.78px;"/>
            </g>
            <g transform="matrix(-2.33946e-17,0.382063,0.336134,2.05823e-17,1814.12,3234.15)">
                <ellipse cx="391.223" cy="1605.37" rx="61.828" ry="70.276" style="fill:none;stroke:rgb(255,0,0);stroke-width:2.78px;"/>
            </g>
            <g transform="matrix(-2.33946e-17,0.382063,0.336134,2.05823e-17,1814.12,1955.47)">
                <ellipse cx="391.223" cy="1605.37" rx="61.828" ry="70.276" style="fill:none;stroke:rgb(255,0,0);stroke-width:2.78px;"/>
            </g>
        </g>
        <g transform="matrix(1,1.22465e-16,-1.22465e-16,1,2575.7,29.7165)">
            <g transform="matrix(-2.33946e-17,-0.382063,-0.336134,2.05823e-17,2746.04,3235.29)">
                <ellipse cx="391.223" cy="1605.37" rx="61.828" ry="70.276" style="fill:none;stroke:rgb(255,0,0);stroke-width:2.78px;"/>
            </g>
            <g transform="matrix(-2.33946e-17,-0.382063,-0.336134,2.05823e-17,2746.04,1956.61)">
                <ellipse cx="391.223" cy="1605.37" rx="61.828" ry="70.276" style="fill:none;stroke:rgb(255,0,0);stroke-width:2.78px;"/>
            </g>
            <g transform="matrix(-2.33946e-17,-0.382063,-0.336134,2.05823e-17,1790.68,1956.61)">
                <ellipse cx="391.223" cy="1605.37" rx="61.828" ry="70.276" style="fill:none;stroke:rgb(255,0,0);stroke-width:2.78px;"/>
            </g>
            <g transform="matrix(-2.33946e-17,-0.382063,-0.336134,2.05823e-17,1790.68,3235.29)">
                <ellipse cx="391.223" cy="1605.37" rx="61.828" ry="70.276" style="fill:none;stroke:rgb(255,0,0);stroke-width:2.78px;"/>
            </g>
        </g>
        <g transform="matrix(1,1.22465e-16,-1.22465e-16,1,9.09495e-13,35.4331)">
            <g transform="matrix(2.33946e-17,0.382063,-0.336134,2.05823e-17,1621.56,1955.47)">
                <ellipse cx="391.223" cy="1605.37" rx="61.828" ry="70.276" style="fill:none;stroke:rgb(255,0,0);stroke-width:2.78px;"/>
            </g>
            <g transform="matrix(2.33946e-17,0.382063,-0.336134,2.05823e-17,1621.56,3234.15)">
                <ellipse cx="391.223" cy="1605.37" rx="61.828" ry="70.276" style="fill:none;stroke:rgb(255,0,0);stroke-width:2.78px;"/>
            </g>
            <g transform="matrix(2.33946e-17,0.382063,-0.336134,2.05823e-17,666.193,3234.15)">
                <ellipse cx="391.223" cy="1605.37" rx="61.828" ry="70.276" style="fill:none;stroke:rgb(255,0,0);stroke-width:2.78px;"/>
            </g>
            <g transform="matrix(2.33946e-17,0.382063,-0.336134,2.05823e-17,666.193,1955.47)">
                <ellipse cx="391.223" cy="1605.37" rx="61.828" ry="70.276" style="fill:none;stroke:rgb(255,0,0);stroke-width:2.78px;"/>
            </g>
        </g>
        <g transform="matrix(1,1.22465e-16,-1.22465e-16,1,-46.197,35.4331)">
            <g transform="matrix(-2.33946e-17,0.382063,0.336134,2.05823e-17,858.757,1955.47)">
                <ellipse cx="391.223" cy="1605.37" rx="61.828" ry="70.276" style="fill:none;stroke:rgb(255,0,0);stroke-width:2.78px;"/>
            </g>
            <g transform="matrix(-2.33946e-17,0.382063,0.336134,2.05823e-17,858.757,3234.15)">
                <ellipse cx="391.223" cy="1605.37" rx="61.828" ry="70.276" style="fill:none;stroke:rgb(255,0,0);stroke-width:2.78px;"/>
            </g>
            <g transform="matrix(-2.33946e-17,0.382063,0.336134,2.05823e-17,1814.12,3234.15)">
                <ellipse cx="391.223" cy="1605.37" rx="61.828" ry="70.276" style="fill:none;stroke:rgb(255,0,0);stroke-width:2.78px;"/>
            </g>
            <g transform="matrix(-2.33946e-17,0.382063,0.336134,2.05823e-17,1814.12,1955.47)">
                <ellipse cx="391.223" cy="1605.37" rx="61.828" ry="70.276" style="fill:none;stroke:rgb(255,0,0);stroke-width:2.78px;"/>
            </g>
        </g>
        <g transform="matrix(-1,0,0,-1,2838.8,3507.87)">
            <g transform="matrix(2.33946e-17,0.382063,-0.336134,2.05823e-17,1621.56,1955.47)">
                <ellipse cx="391.223" cy="1605.37" rx="61.828" ry="70.276" style="fill:none;stroke:rgb(255,0,0);stroke-width:2.78px;"/>
            </g>
            <g transform="matrix(2.33946e-17,0.382063,-0.336134,2.05823e-17,1621.56,3234.15)">
                <ellipse cx="391.223" cy="1605.37" rx="61.828" ry="70.276" style="fill:none;stroke:rgb(255,0,0);stroke-width:2.78px;"/>
            </g>
            <g transform="matrix(2.33946e-17,0.382063,-0.336134,2.05823e-17,666.193,3234.15)">
                <ellipse cx="391.223" cy="1605.37" rx="61.828" ry="70.276" style="fill:none;stroke:rgb(255,0,0);stroke-width:2.78px;"/>
            </g>
            <g transform="matrix(2.33946e-17,0.382063,-0.336134,2.05823e-17,666.193,1955.47)">
                <ellipse cx="391.223" cy="1605.37" rx="61.828" ry="70.276" style="fill:none;stroke:rgb(255,0,0);stroke-width:2.78px;"/>
            </g>
        </g>
        <g transform="matrix(-1,0,0,-1,2480.31,3507.87)">
            <g transform="matrix(-2.33946e-17,0.382063,0.336134,2.05823e-17,858.757,1955.47)">
                <ellipse cx="391.223" cy="1605.37" rx="61.828" ry="70.276" style="fill:none;stroke:rgb(255,0,0);stroke-width:2.78px;"/>
            </g>
            <g transform="matrix(-2.33946e-17,0.382063,0.336134,2.05823e-17,858.757,3234.15)">
                <ellipse cx="391.223" cy="1605.37" rx="61.828" ry="70.276" style="fill:none;stroke:rgb(255,0,0);stroke-width:2.78px;"/>
            </g>
            <g transform="matrix(-2.33946e-17,0.382063,0.336134,2.05823e-17,1814.12,3234.15)">
                <ellipse cx="391.223" cy="1605.37" rx="61.828" ry="70.276" style="fill:none;stroke:rgb(255,0,0);stroke-width:2.78px;"/>
            </g>
            <g transform="matrix(-2.33946e-17,0.382063,0.336134,2.05823e-17,1814.12,1955.47)">
                <ellipse cx="391.223" cy="1605.37" rx="61.828" ry="70.276" style="fill:none;stroke:rgb(255,0,0);stroke-width:2.78px;"/>
            </g>
        </g>
        <g transform="matrix(-1,0,0,-1,2739.26,3513.59)">
            <g transform="matrix(-2.33946e-17,-0.382063,-0.336134,2.05823e-17,2746.04,3235.29)">
                <ellipse cx="391.223" cy="1605.37" rx="61.828" ry="70.276" style="fill:none;stroke:rgb(255,0,0);stroke-width:2.78px;"/>
            </g>
            <g transform="matrix(-2.33946e-17,-0.382063,-0.336134,2.05823e-17,2746.04,1956.61)">
                <ellipse cx="391.223" cy="1605.37" rx="61.828" ry="70.276" style="fill:none;stroke:rgb(255,0,0);stroke-width:2.78px;"/>
            </g>
            <g transform="matrix(-2.33946e-17,-0.382063,-0.336134,2.05823e-17,1790.68,1956.61)">
                <ellipse cx="391.223" cy="1605.37" rx="61.828" ry="70.276" style="fill:none;stroke:rgb(255,0,0);stroke-width:2.78px;"/>
            </g>
            <g transform="matrix(-2.33946e-17,-0.382063,-0.336134,2.05823e-17,1790.68,3235.29)">
                <ellipse cx="391.223" cy="1605.37" rx="61.828" ry="70.276" style="fill:none;stroke:rgb(255,0,0);stroke-width:2.78px;"/>
            </g>
        </g>
        <g transform="matrix(-1,0,0,-1,5314.96,3507.87)">
            <g transform="matrix(2.33946e-17,0.382063,-0.336134,2.05823e-17,1621.56,1955.47)">
                <ellipse cx="391.223" cy="1605.37" rx="61.828" ry="70.276" style="fill:none;stroke:rgb(255,0,0);stroke-width:2.78px;"/>
            </g>
            <g transform="matrix(2.33946e-17,0.382063,-0.336134,2.05823e-17,1621.56,3234.15)">
                <ellipse cx="391.223" cy="1605.37" rx="61.828" ry="70.276" style="fill:none;stroke:rgb(255,0,0);stroke-width:2.78px;"/>
            </g>
            <g transform="matrix(2.33946e-17,0.382063,-0.336134,2.05823e-17,666.193,3234.15)">
                <ellipse cx="391.223" cy="1605.37" rx="61.828" ry="70.276" style="fill:none;stroke:rgb(255,0,0);stroke-width:2.78px;"/>
            </g>
            <g transform="matrix(2.33946e-17,0.382063,-0.336134,2.05823e-17,666.193,1955.47)">
                <ellipse cx="391.223" cy="1605.37" rx="61.828" ry="70.276" style="fill:none;stroke:rgb(255,0,0);stroke-width:2.78px;"/>
            </g>
        </g>
        <g transform="matrix(-1,0,0,-1,5361.16,3507.87)">
            <g transform="matrix(-2.33946e-17,0.382063,0.336134,2.05823e-17,858.757,1955.47)">
                <ellipse cx="391.223" cy="1605.37" rx="61.828" ry="70.276" style="fill:none;stroke:rgb(255,0,0);stroke-width:2.78px;"/>
            </g>
            <g transform="matrix(-2.33946e-17,0.382063,0.336134,2.05823e-17,858.757,3234.15)">
                <ellipse cx="391.223" cy="1605.37" rx="61.828" ry="70.276" style="fill:none;stroke:rgb(255,0,0);stroke-width:2.78px;"/>
            </g>
            <g transform="matrix(-2.33946e-17,0.382063,0.336134,2.05823e-17,1814.12,3234.15)">
                <ellipse cx="391.223" cy="1605.37" rx="61.828" ry="70.276" style="fill:none;stroke:rgb(255,0,0);stroke-width:2.78px;"/>
            </g>
            <g transform="matrix(-2.33946e-17,0.382063,0.336134,2.05823e-17,1814.12,1955.47)">
                <ellipse cx="391.223" cy="1605.37" rx="61.828" ry="70.276" style="fill:none;stroke:rgb(255,0,0);stroke-width:2.78px;"/>
            </g>
        </g>
    </g>
    <g id="カット２">
        <g transform="matrix(1,0,0,1,2503.34,-9.5709)">
            <path d="M1573.59,3035.82L1573.59,3037.1L2255.16,3037.1L2255.16,2799.1L2278.68,2799.1L2278.68,2733.28L2315.4,2733.28C2328.48,2733.28 2339.08,2743.88 2339.08,2756.95L2339.08,3146.66C2339.08,3179.28 2312.64,3205.72 2280.02,3205.72L1314.96,3205.72C1282.34,3205.72 1255.9,3179.28 1255.9,3146.66L1255.9,1840.28C1255.9,1807.66 1282.34,1781.22 1314.96,1781.22L2280.02,1781.22C2312.64,1781.22 2339.08,1807.66 2339.08,1840.28L2339.08,1932.22C2339.08,1938.5 2336.58,1944.54 2332.13,1948.98C2327.69,1953.43 2321.65,1955.93 2315.36,1955.93L2278.79,1955.93L2278.79,1892.98L2188.96,1892.98L2188.96,1893.05L1347.04,1893.05L1347.04,2586.01C1347.04,2586.01 1530.54,2586.29 1567.42,2586.34C1570.96,2586.35 1573.83,2589.22 1573.83,2592.76C1573.83,2647.61 1573.83,3035.82 1573.83,3035.82L1573.59,3035.82Z" style="fill:none;fill-rule:nonzero;stroke:rgb(0,0,255);stroke-width:1px;stroke-miterlimit:10;"/>
        </g>
        <g transform="matrix(-1,1.22465e-16,-1.22465e-16,-1,6511.81,5265.48)">
            <path d="M1573.59,3035.82L1573.59,3037.1L2255.16,3037.1L2255.16,2799.1L2278.68,2799.1L2278.68,2733.28L2315.4,2733.28C2328.48,2733.28 2339.08,2743.88 2339.08,2756.95L2339.08,3146.66C2339.08,3179.28 2312.64,3205.72 2280.02,3205.72L1314.96,3205.72C1282.34,3205.72 1255.9,3179.28 1255.9,3146.66L1255.9,1840.28C1255.9,1807.66 1282.34,1781.22 1314.96,1781.22L2280.02,1781.22C2312.64,1781.22 2339.08,1807.66 2339.08,1840.28L2339.08,1932.22C2339.08,1938.5 2336.58,1944.54 2332.13,1948.98C2327.69,1953.43 2321.65,1955.93 2315.36,1955.93L2278.79,1955.93L2278.79,1892.98L2188.96,1892.98L2188.96,1893.05L1347.04,1893.05L1347.04,2586.01C1347.04,2586.01 1530.54,2586.29 1567.42,2586.34C1570.96,2586.35 1573.83,2589.22 1573.83,2592.76C1573.83,2647.61 1573.83,3035.82 1573.83,3035.82L1573.59,3035.82Z" style="fill:none;fill-rule:nonzero;stroke:rgb(0,0,255);stroke-width:1px;stroke-miterlimit:10;"/>
        </g>
        <g transform="matrix(1,-1.22465e-16,-1.22465e-16,-1,-1196.85,5265.48)">
            <path d="M1573.59,3035.82L1573.59,3037.1L2255.16,3037.1L2255.16,2799.1L2278.68,2799.1L2278.68,2733.28L2315.4,2733.28C2328.48,2733.28 2339.08,2743.88 2339.08,2756.95L2339.08,3146.66C2339.08,3179.28 2312.64,3205.72 2280.02,3205.72L1314.96,3205.72C1282.34,3205.72 1255.9,3179.28 1255.9,3146.66L1255.9,1840.28C1255.9,1807.66 1282.34,1781.22 1314.96,1781.22L2280.02,1781.22C2312.64,1781.22 2339.08,1807.66 2339.08,1840.28L2339.08,1932.22C2339.08,1938.5 2336.58,1944.54 2332.13,1948.98C2327.69,1953.43 2321.65,1955.93 2315.36,1955.93L2278.79,1955.93L2278.79,1892.98L2188.96,1892.98L2188.96,1893.05L1347.04,1893.05L1347.04,2586.01C1347.04,2586.01 1530.54,2586.29 1567.42,2586.34C1570.96,2586.35 1573.83,2589.22 1573.83,2592.76C1573.83,2647.61 1573.83,3035.82 1573.83,3035.82L1573.59,3035.82Z" style="fill:none;fill-rule:nonzero;stroke:rgb(0,0,255);stroke-width:1px;stroke-miterlimit:10;"/>
        </g>
        <g transform="matrix(1,-1.22465e-16,-1.22465e-16,-1,1278.19,5265.48)">
            <path d="M1573.59,3035.82L1573.59,3037.1L2255.16,3037.1L2255.16,2799.1L2278.68,2799.1L2278.68,2733.28L2315.4,2733.28C2328.48,2733.28 2339.08,2743.88 2339.08,2756.95L2339.08,3146.66C2339.08,3179.28 2312.64,3205.72 2280.02,3205.72L1314.96,3205.72C1282.34,3205.72 1255.9,3179.28 1255.9,3146.66L1255.9,1840.28C1255.9,1807.66 1282.34,1781.22 1314.96,1781.22L2280.02,1781.22C2312.64,1781.22 2339.08,1807.66 2339.08,1840.28L2339.08,1932.22C2339.08,1938.5 2336.58,1944.54 2332.13,1948.98C2327.69,1953.43 2321.65,1955.93 2315.36,1955.93L2278.79,1955.93L2278.79,1892.98L2188.96,1892.98L2188.96,1893.05L1347.04,1893.05L1347.04,2586.01C1347.04,2586.01 1530.54,2586.29 1567.42,2586.34C1570.96,2586.35 1573.83,2589.22 1573.83,2592.76C1573.83,2647.61 1573.83,3035.82 1573.83,3035.82L1573.59,3035.82Z" style="fill:none;fill-rule:nonzero;stroke:rgb(0,0,255);stroke-width:1px;stroke-miterlimit:10;"/>
        </g>
        <g transform="matrix(-1,-1.22465e-16,1.22465e-16,-1,3630.97,5265.48)">
            <path d="M1573.59,3035.82L1573.59,3037.1L2255.16,3037.1L2255.16,2799.1L2278.68,2799.1L2278.68,2733.28L2315.4,2733.28C2328.48,2733.28 2339.08,2743.88 2339.08,2756.95L2339.08,3146.66C2339.08,3179.28 2312.64,3205.72 2280.02,3205.72L1314.96,3205.72C1282.34,3205.72 1255.9,3179.28 1255.9,3146.66L1255.9,1840.28C1255.9,1807.66 1282.34,1781.22 1314.96,1781.22L2280.02,1781.22C2312.64,1781.22 2339.08,1807.66 2339.08,1840.28L2339.08,1932.22C2339.08,1938.5 2336.58,1944.54 2332.13,1948.98C2327.69,1953.43 2321.65,1955.93 2315.36,1955.93L2278.79,1955.93L2278.79,1892.98L2188.96,1892.98L2188.96,1893.05L1347.04,1893.05L1347.04,2586.01C1347.04,2586.01 1530.54,2586.29 1567.42,2586.34C1570.96,2586.35 1573.83,2589.22 1573.83,2592.76C1573.83,2647.61 1573.83,3035.82 1573.83,3035.82L1573.59,3035.82Z" style="fill:none;fill-rule:nonzero;stroke:rgb(0,0,255);stroke-width:1px;stroke-miterlimit:10;"/>
        </g>
        <g transform="matrix(-1,1.22465e-16,-1.22465e-16,-1,2811.62,3552.88)">
            <path d="M1573.59,3035.82L1573.59,3037.1L2255.16,3037.1L2255.16,2799.1L2278.68,2799.1L2278.68,2733.28L2315.4,2733.28C2328.48,2733.28 2339.08,2743.88 2339.08,2756.95L2339.08,3146.66C2339.08,3179.28 2312.64,3205.72 2280.02,3205.72L1314.96,3205.72C1282.34,3205.72 1255.9,3179.28 1255.9,3146.66L1255.9,1840.28C1255.9,1807.66 1282.34,1781.22 1314.96,1781.22L2280.02,1781.22C2312.64,1781.22 2339.08,1807.66 2339.08,1840.28L2339.08,1932.22C2339.08,1938.5 2336.58,1944.54 2332.13,1948.98C2327.69,1953.43 2321.65,1955.93 2315.36,1955.93L2278.79,1955.93L2278.79,1892.98L2188.96,1892.98L2188.96,1893.05L1347.04,1893.05L1347.04,2586.01C1347.04,2586.01 1530.54,2586.29 1567.42,2586.34C1570.96,2586.35 1573.83,2589.22 1573.83,2592.76C1573.83,2647.61 1573.83,3035.82 1573.83,3035.82L1573.59,3035.82Z" style="fill:none;fill-rule:nonzero;stroke:rgb(0,0,255);stroke-width:1px;stroke-miterlimit:10;"/>
        </g>
        <g transform="matrix(1,-2.44929e-16,2.44929e-16,1,-1196.85,-1722.17)">
            <path d="M1573.59,3035.82L1573.59,3037.1L2255.16,3037.1L2255.16,2799.1L2278.68,2799.1L2278.68,2733.28L2315.4,2733.28C2328.48,2733.28 2339.08,2743.88 2339.08,2756.95L2339.08,3146.66C2339.08,3179.28 2312.64,3205.72 2280.02,3205.72L1314.96,3205.72C1282.34,3205.72 1255.9,3179.28 1255.9,3146.66L1255.9,1840.28C1255.9,1807.66 1282.34,1781.22 1314.96,1781.22L2280.02,1781.22C2312.64,1781.22 2339.08,1807.66 2339.08,1840.28L2339.08,1932.22C2339.08,1938.5 2336.58,1944.54 2332.13,1948.98C2327.69,1953.43 2321.65,1955.93 2315.36,1955.93L2278.79,1955.93L2278.79,1892.98L2188.96,1892.98L2188.96,1893.05L1347.04,1893.05L1347.04,2586.01C1347.04,2586.01 1530.54,2586.29 1567.42,2586.34C1570.96,2586.35 1573.83,2589.22 1573.83,2592.76C1573.83,2647.61 1573.83,3035.82 1573.83,3035.82L1573.59,3035.82Z" style="fill:none;fill-rule:nonzero;stroke:rgb(0,0,255);stroke-width:1px;stroke-miterlimit:10;"/>
        </g>
        <g transform="matrix(-1,2.44929e-16,2.44929e-16,1,6511.81,-1722.17)">
            <path d="M1573.59,3035.82L1573.59,3037.1L2255.16,3037.1L2255.16,2799.1L2278.68,2799.1L2278.68,2733.28L2315.4,2733.28C2328.48,2733.28 2339.08,2743.88 2339.08,2756.95L2339.08,3146.66C2339.08,3179.28 2312.64,3205.72 2280.02,3205.72L1314.96,3205.72C1282.34,3205.72 1255.9,3179.28 1255.9,3146.66L1255.9,1840.28C1255.9,1807.66 1282.34,1781.22 1314.96,1781.22L2280.02,1781.22C2312.64,1781.22 2339.08,1807.66 2339.08,1840.28L2339.08,1932.22C2339.08,1938.5 2336.58,1944.54 2332.13,1948.98C2327.69,1953.43 2321.65,1955.93 2315.36,1955.93L2278.79,1955.93L2278.79,1892.98L2188.96,1892.98L2188.96,1893.05L1347.04,1893.05L1347.04,2586.01C1347.04,2586.01 1530.54,2586.29 1567.42,2586.34C1570.96,2586.35 1573.83,2589.22 1573.83,2592.76C1573.83,2647.61 1573.83,3035.82 1573.83,3035.82L1573.59,3035.82Z" style="fill:none;fill-rule:nonzero;stroke:rgb(0,0,255);stroke-width:1px;stroke-miterlimit:10;"/>
        </g>
        <g transform="matrix(-1,2.44929e-16,2.44929e-16,1,4036.77,-1722.17)">
            <path d="M1573.59,3035.82L1573.59,3037.1L2255.16,3037.1L2255.16,2799.1L2278.68,2799.1L2278.68,2733.28L2315.4,2733.28C2328.48,2733.28 2339.08,2743.88 2339.08,2756.95L2339.08,3146.66C2339.08,3179.28 2312.64,3205.72 2280.02,3205.72L1314.96,3205.72C1282.34,3205.72 1255.9,3179.28 1255.9,3146.66L1255.9,1840.28C1255.9,1807.66 1282.34,1781.22 1314.96,1781.22L2280.02,1781.22C2312.64,1781.22 2339.08,1807.66 2339.08,1840.28L2339.08,1932.22C2339.08,1938.5 2336.58,1944.54 2332.13,1948.98C2327.69,1953.43 2321.65,1955.93 2315.36,1955.93L2278.79,1955.93L2278.79,1892.98L2188.96,1892.98L2188.96,1893.05L1347.04,1893.05L1347.04,2586.01C1347.04,2586.01 1530.54,2586.29 1567.42,2586.34C1570.96,2586.35 1573.83,2589.22 1573.83,2592.76C1573.83,2647.61 1573.83,3035.82 1573.83,3035.82L1573.59,3035.82Z" style="fill:none;fill-rule:nonzero;stroke:rgb(0,0,255);stroke-width:1px;stroke-miterlimit:10;"/>
        </g>
        <g transform="matrix(1,0,0,1,1684,-1722.17)">
            <path d="M1573.59,3035.82L1573.59,3037.1L2255.16,3037.1L2255.16,2799.1L2278.68,2799.1L2278.68,2733.28L2315.4,2733.28C2328.48,2733.28 2339.08,2743.88 2339.08,2756.95L2339.08,3146.66C2339.08,3179.28 2312.64,3205.72 2280.02,3205.72L1314.96,3205.72C1282.34,3205.72 1255.9,3179.28 1255.9,3146.66L1255.9,1840.28C1255.9,1807.66 1282.34,1781.22 1314.96,1781.22L2280.02,1781.22C2312.64,1781.22 2339.08,1807.66 2339.08,1840.28L2339.08,1932.22C2339.08,1938.5 2336.58,1944.54 2332.13,1948.98C2327.69,1953.43 2321.65,1955.93 2315.36,1955.93L2278.79,1955.93L2278.79,1892.98L2188.96,1892.98L2188.96,1893.05L1347.04,1893.05L1347.04,2586.01C1347.04,2586.01 1530.54,2586.29 1567.42,2586.34C1570.96,2586.35 1573.83,2589.22 1573.83,2592.76C1573.83,2647.61 1573.83,3035.82 1573.83,3035.82L1573.59,3035.82Z" style="fill:none;fill-rule:nonzero;stroke:rgb(0,0,255);stroke-width:1px;stroke-miterlimit:10;"/>
        </g>
    </g>
</svg>
